<svg xmlns="http://www.w3.org/2000/svg" width="1089" height="224" viewBox="0 0 1089 224">
  <metadata><?xpacket begin="﻿" id="W5M0MpCehiHzreSzNTczkc9d"?>
<x:xmpmeta xmlns:x="adobe:ns:meta/" x:xmptk="Adobe XMP Core 5.6-c142 79.160924, 2017/07/13-01:06:39        ">
   <rdf:RDF xmlns:rdf="http://www.w3.org/1999/02/22-rdf-syntax-ns#">
      <rdf:Description rdf:about=""/>
   </rdf:RDF>
</x:xmpmeta>
                                                                                                    
                                                                                                    
                                                                                                    
                                                                                                    
                                                                                                    
                                                                                                    
                                                                                                    
                                                                                                    
                                                                                                    
                                                                                                    
                                                                                                    
                                                                                                    
                                                                                                    
                                                                                                    
                                                                                                    
                                                                                                    
                                                                                                    
                                                                                                    
                                                                                                    
                                                                                                    
                           
<?xpacket end="w"?></metadata>
<defs>
    <style>
      .cls-1 {
        fill: #fff;
      }

      .cls-1, .cls-3 {
        fill-rule: evenodd;
      }

      .cls-2, .cls-3 {
        fill: none;
        stroke: #fff;
        stroke-width: 30px;
      }
    </style>
  </defs>
  <path id="RAZOR_NETWORK" data-name="RAZOR NETWORK" class="cls-1" d="M328.242,147L304.5,109.646a20.941,20.941,0,0,0,8.362-1.678,21.489,21.489,0,0,0,11.444-11.475,21.171,21.171,0,0,0,1.678-8.392v-7.08a21.174,21.174,0,0,0-1.678-8.392,21.49,21.49,0,0,0-11.444-11.475,20.964,20.964,0,0,0-8.362-1.678H276.728V147H284.6V109.646h10.8L319.147,147h9.1ZM318.11,88.1a13.566,13.566,0,0,1-1.1,5.463,14.549,14.549,0,0,1-2.99,4.456,13.937,13.937,0,0,1-4.426,3.022,13.58,13.58,0,0,1-5.462,1.1H284.6V66.983h19.531a13.574,13.574,0,0,1,5.462,1.1,13.926,13.926,0,0,1,4.426,3.021,14.56,14.56,0,0,1,2.99,4.456,13.57,13.57,0,0,1,1.1,5.463V88.1ZM381.892,147h8.117L364.252,59.476H360.1L334.467,147h8.179l5.737-20.386h27.71Zm-19.9-68.237,0.244-3.235,0.244,3.235,11.536,40.344h-23.5ZM445.49,147v-7.507h-39l39-76.233V59.476H397.456v7.507h37.78l-39,76.294V147H445.49Zm62.989-20.264v-47a20.957,20.957,0,0,0-1.679-8.362,21.572,21.572,0,0,0-11.444-11.444,20.965,20.965,0,0,0-8.362-1.678h-6.225a21.182,21.182,0,0,0-8.393,1.678A21.492,21.492,0,0,0,460.9,71.377a20.94,20.94,0,0,0-1.679,8.362v47A20.931,20.931,0,0,0,460.9,135.1a21.491,21.491,0,0,0,11.474,11.444,21.176,21.176,0,0,0,8.393,1.679h6.225a20.959,20.959,0,0,0,8.362-1.679A21.57,21.57,0,0,0,506.8,135.1a20.948,20.948,0,0,0,1.679-8.362h0Zm-7.874,0a13.569,13.569,0,0,1-1.1,5.463,14.554,14.554,0,0,1-2.99,4.456,13.942,13.942,0,0,1-4.425,3.021,13.589,13.589,0,0,1-5.463,1.1h-5.493a13.585,13.585,0,0,1-5.463-1.1A14.291,14.291,0,0,1,468.2,132.2a13.585,13.585,0,0,1-1.1-5.463v-47a13.586,13.586,0,0,1,1.1-5.463,13.925,13.925,0,0,1,3.022-4.425,14.534,14.534,0,0,1,4.455-2.991,13.579,13.579,0,0,1,5.463-1.1h5.493a13.582,13.582,0,0,1,5.463,1.1,14.059,14.059,0,0,1,7.415,7.416,13.57,13.57,0,0,1,1.1,5.463v47ZM577.509,147l-23.742-37.354a20.936,20.936,0,0,0,8.361-1.678,21.5,21.5,0,0,0,11.445-11.475,21.188,21.188,0,0,0,1.678-8.392v-7.08a21.192,21.192,0,0,0-1.678-8.392,21.5,21.5,0,0,0-11.445-11.475,20.959,20.959,0,0,0-8.361-1.678H526V147h7.873V109.646h10.8L568.415,147h9.094ZM567.377,88.1a13.583,13.583,0,0,1-1.1,5.463,14.552,14.552,0,0,1-2.991,4.456,13.932,13.932,0,0,1-4.425,3.022,13.585,13.585,0,0,1-5.463,1.1H533.869V66.983H553.4a13.579,13.579,0,0,1,5.463,1.1,13.922,13.922,0,0,1,4.425,3.021,14.563,14.563,0,0,1,2.991,4.456,13.587,13.587,0,0,1,1.1,5.463V88.1ZM670.527,147V59.476h-7.874v67.5l-0.793-3.723-36.5-63.781h-4.09V147h7.874V79.5l0.732,3.784L666.376,147h4.151Zm69.275,0v-7.507H698.42V107.022h33.508V99.515H698.42V66.983H739.8V59.476H690.546V147H739.8Zm57.129-80.017V59.476H747.309v7.507h20.874V147h7.874V66.983h20.874Zm94.116-7.507h-7.874L866.083,126l-0.3,3.235L865.534,126,848.688,59.476h-4.394L827.448,126l-0.244,3.235L826.96,126,809.809,59.476h-7.873L825.19,147h4.089l16.907-65.857,0.366-3.418,0.244,3.418L863.825,147h4.09Zm60.486,67.26v-47a20.957,20.957,0,0,0-1.679-8.362A21.572,21.572,0,0,0,938.41,59.933a20.962,20.962,0,0,0-8.362-1.678h-6.225a21.182,21.182,0,0,0-8.393,1.678,21.492,21.492,0,0,0-11.474,11.444,20.94,20.94,0,0,0-1.679,8.362v47a20.931,20.931,0,0,0,1.679,8.362,21.491,21.491,0,0,0,11.474,11.444,21.176,21.176,0,0,0,8.393,1.679h6.225a20.955,20.955,0,0,0,8.362-1.679A21.57,21.57,0,0,0,949.854,135.1a20.948,20.948,0,0,0,1.679-8.362h0Zm-7.874,0a13.585,13.585,0,0,1-1.1,5.463,14.556,14.556,0,0,1-2.991,4.456,13.942,13.942,0,0,1-4.425,3.021,13.589,13.589,0,0,1-5.463,1.1h-5.493a13.585,13.585,0,0,1-5.463-1.1,14.284,14.284,0,0,1-7.476-7.477,13.569,13.569,0,0,1-1.1-5.463v-47a13.57,13.57,0,0,1,1.1-5.463,13.906,13.906,0,0,1,3.021-4.425,14.534,14.534,0,0,1,4.455-2.991,13.579,13.579,0,0,1,5.463-1.1h5.493a13.582,13.582,0,0,1,5.463,1.1,14.065,14.065,0,0,1,7.416,7.416,13.586,13.586,0,0,1,1.1,5.463v47ZM1020.56,147l-23.739-37.354a20.909,20.909,0,0,0,8.359-1.678,21.491,21.491,0,0,0,11.45-11.475,21.155,21.155,0,0,0,1.68-8.392v-7.08a21.158,21.158,0,0,0-1.68-8.392,21.492,21.492,0,0,0-11.45-11.475,20.932,20.932,0,0,0-8.359-1.678H969.05V147h7.873V109.646h10.8L1011.47,147h9.09Zm-10.13-58.9a13.45,13.45,0,0,1-1.1,5.463,14.514,14.514,0,0,1-2.99,4.456,13.866,13.866,0,0,1-4.42,3.022,13.6,13.6,0,0,1-5.465,1.1H976.923V66.983h19.532a13.6,13.6,0,0,1,5.465,1.1,13.856,13.856,0,0,1,4.42,3.021,14.524,14.524,0,0,1,2.99,4.456,13.454,13.454,0,0,1,1.1,5.463V88.1Zm77.64,58.9-33.63-43.762,33.63-43.762h-9.77l-32.96,43.762L1078.3,147h9.77Zm-44.62,0V59.476h-7.87V147h7.87Z"/>
  <rect class="cls-2" width="224" height="224"/>
  <path id="Rounded_Rectangle_1" data-name="Rounded Rectangle 1" class="cls-3" d="M69.994,48.781L175.219,154.006c2.185,2.185.79,7.122-3.115,11.027l-7.071,7.071c-3.905,3.9-8.842,5.3-11.027,3.115L48.781,69.994c-2.185-2.185-.79-7.122,3.115-11.027L58.967,51.9C62.872,47.991,67.809,46.6,69.994,48.781Z"/>
</svg>
