<svg xmlns="http://www.w3.org/2000/svg" width="1200" height="300" viewBox="0 0 1200 300">
  <metadata><?xpacket begin="﻿" id="W5M0MpCehiHzreSzNTczkc9d"?>
<x:xmpmeta xmlns:x="adobe:ns:meta/" x:xmptk="Adobe XMP Core 5.6-c142 79.160924, 2017/07/13-01:06:39        ">
   <rdf:RDF xmlns:rdf="http://www.w3.org/1999/02/22-rdf-syntax-ns#">
      <rdf:Description rdf:about=""/>
   </rdf:RDF>
</x:xmpmeta>
                                                                                                    
                                                                                                    
                                                                                                    
                                                                                                    
                                                                                                    
                                                                                                    
                                                                                                    
                                                                                                    
                                                                                                    
                                                                                                    
                                                                                                    
                                                                                                    
                                                                                                    
                                                                                                    
                                                                                                    
                                                                                                    
                                                                                                    
                                                                                                    
                                                                                                    
                                                                                                    
                           
<?xpacket end="w"?></metadata>
<defs>
    <style>
      .cls-1 {
        fill: #fff;
      }

      .cls-1, .cls-3 {
        fill-rule: evenodd;
      }

      .cls-2 {
        fill: none;
        stroke: #fff;
        stroke-width: 30px;
      }

      .cls-3 {
        fill: #ebebeb;
      }
    </style>
  </defs>
  <path id="RAZOR_NETWORK" data-name="RAZOR NETWORK" class="cls-1" d="M383.242,185L359.5,147.646a20.941,20.941,0,0,0,8.362-1.678,21.488,21.488,0,0,0,11.444-11.475,21.167,21.167,0,0,0,1.678-8.392v-7.08a21.17,21.17,0,0,0-1.678-8.392,21.488,21.488,0,0,0-11.444-11.475,20.964,20.964,0,0,0-8.362-1.678H331.728V185H339.6V147.646h10.8L374.147,185h9.1ZM373.11,126.1a13.569,13.569,0,0,1-1.1,5.463,14.537,14.537,0,0,1-2.99,4.455,13.933,13.933,0,0,1-4.426,3.022,13.58,13.58,0,0,1-5.462,1.1H339.6V104.983h19.531a13.564,13.564,0,0,1,5.462,1.1,13.914,13.914,0,0,1,4.426,3.021,14.561,14.561,0,0,1,2.99,4.455,13.572,13.572,0,0,1,1.1,5.463v7.08ZM436.892,185h8.117L419.252,97.476H415.1L389.467,185h8.179l5.737-20.386h27.71Zm-19.9-68.237,0.244-3.235,0.244,3.235,11.536,40.344h-23.5ZM500.49,185v-7.507h-39l39-76.233V97.476H452.456v7.507h37.78l-39,76.294V185H500.49Zm62.989-20.264v-47a20.962,20.962,0,0,0-1.679-8.362,21.577,21.577,0,0,0-11.444-11.444,20.965,20.965,0,0,0-8.362-1.678h-6.225a21.182,21.182,0,0,0-8.393,1.678A21.5,21.5,0,0,0,515.9,109.377a20.945,20.945,0,0,0-1.679,8.362v47A20.931,20.931,0,0,0,515.9,173.1a21.491,21.491,0,0,0,11.474,11.444,21.176,21.176,0,0,0,8.393,1.679h6.225a20.959,20.959,0,0,0,8.362-1.679A21.57,21.57,0,0,0,561.8,173.1a20.948,20.948,0,0,0,1.679-8.362h0Zm-7.874,0a13.569,13.569,0,0,1-1.1,5.463,14.554,14.554,0,0,1-2.99,4.456,13.942,13.942,0,0,1-4.425,3.021,13.589,13.589,0,0,1-5.463,1.1h-5.493a13.585,13.585,0,0,1-5.463-1.1A14.291,14.291,0,0,1,523.2,170.2a13.585,13.585,0,0,1-1.1-5.463v-47a13.584,13.584,0,0,1,1.1-5.462,13.917,13.917,0,0,1,3.022-4.425,14.522,14.522,0,0,1,4.455-2.991,13.569,13.569,0,0,1,5.463-1.1h5.493a13.572,13.572,0,0,1,5.463,1.1,14.06,14.06,0,0,1,7.415,7.416,13.567,13.567,0,0,1,1.1,5.462v47ZM632.509,185l-23.742-37.354a20.936,20.936,0,0,0,8.361-1.678,21.494,21.494,0,0,0,11.445-11.475,21.184,21.184,0,0,0,1.678-8.392v-7.08a21.188,21.188,0,0,0-1.678-8.392,21.494,21.494,0,0,0-11.445-11.475,20.959,20.959,0,0,0-8.361-1.678H581V185h7.873V147.646h10.8L623.415,185h9.094Zm-10.132-58.9a13.585,13.585,0,0,1-1.1,5.463,14.54,14.54,0,0,1-2.991,4.455,13.928,13.928,0,0,1-4.425,3.022,13.585,13.585,0,0,1-5.463,1.1H588.869V104.983H608.4a13.569,13.569,0,0,1,5.463,1.1,13.909,13.909,0,0,1,4.425,3.021,14.564,14.564,0,0,1,2.991,4.455,13.589,13.589,0,0,1,1.1,5.463v7.08ZM725.527,185V97.476h-7.874v67.5l-0.793-3.723-36.5-63.781h-4.09V185h7.874V117.5l0.732,3.784L721.376,185h4.151Zm69.275,0v-7.507H753.42V145.022h33.508v-7.507H753.42V104.983H794.8V97.476H745.546V185H794.8Zm57.129-80.017V97.476H802.309v7.507h20.874V185h7.874V104.983h20.874Zm94.116-7.507h-7.874L921.083,164l-0.3,3.235L920.534,164,903.688,97.476h-4.394L882.448,164l-0.244,3.235L881.96,164,864.809,97.476h-7.873L880.19,185h4.089l16.907-65.857,0.366-3.418,0.244,3.418L918.825,185h4.09Zm60.483,67.26v-47a20.946,20.946,0,0,0-1.68-8.362,21.516,21.516,0,0,0-11.44-11.444,20.962,20.962,0,0,0-8.362-1.678h-6.225a21.182,21.182,0,0,0-8.393,1.678,21.5,21.5,0,0,0-11.474,11.444,20.945,20.945,0,0,0-1.679,8.362v47a20.931,20.931,0,0,0,1.679,8.362,21.491,21.491,0,0,0,11.474,11.444,21.176,21.176,0,0,0,8.393,1.679h6.225a20.955,20.955,0,0,0,8.362-1.679,21.509,21.509,0,0,0,11.44-11.444,20.932,20.932,0,0,0,1.68-8.362h0Zm-7.871,0a13.585,13.585,0,0,1-1.1,5.463,14.556,14.556,0,0,1-2.991,4.456,13.942,13.942,0,0,1-4.425,3.021,13.589,13.589,0,0,1-5.463,1.1h-5.493a13.585,13.585,0,0,1-5.463-1.1,14.284,14.284,0,0,1-7.476-7.477,13.569,13.569,0,0,1-1.1-5.463v-47a13.567,13.567,0,0,1,1.1-5.462,13.9,13.9,0,0,1,3.021-4.425,14.522,14.522,0,0,1,4.455-2.991,13.569,13.569,0,0,1,5.463-1.1h5.493a13.572,13.572,0,0,1,5.463,1.1,14.067,14.067,0,0,1,7.416,7.416,13.584,13.584,0,0,1,1.1,5.462v47ZM1075.56,185l-23.74-37.354a20.914,20.914,0,0,0,8.36-1.678,21.49,21.49,0,0,0,11.45-11.475,21.151,21.151,0,0,0,1.68-8.392v-7.08a21.154,21.154,0,0,0-1.68-8.392,21.489,21.489,0,0,0-11.45-11.475,20.937,20.937,0,0,0-8.36-1.678h-27.77V185h7.87V147.646h10.81L1066.47,185h9.09Zm-10.13-58.9a13.452,13.452,0,0,1-1.1,5.463,14.5,14.5,0,0,1-2.99,4.455,13.862,13.862,0,0,1-4.42,3.022,13.6,13.6,0,0,1-5.47,1.1h-19.53V104.983h19.53a13.585,13.585,0,0,1,5.47,1.1,13.844,13.844,0,0,1,4.42,3.021,14.525,14.525,0,0,1,2.99,4.455,13.456,13.456,0,0,1,1.1,5.463v7.08Zm77.64,58.9-33.63-43.762,33.63-43.762h-9.77l-32.96,43.762L1133.3,185h9.77Zm-44.62,0V97.476h-7.87V185h7.87Z"/>
  <rect class="cls-2" x="55" y="38" width="224" height="224"/>
  <path id="Rounded_Rectangle_1" data-name="Rounded Rectangle 1" class="cls-3" d="M124.994,86.781L230.219,192.006c2.185,2.185.79,7.122-3.115,11.027l-7.071,7.071c-3.905,3.9-8.842,5.3-11.027,3.115L103.781,107.994c-2.185-2.185-.79-7.122,3.115-11.027l7.071-7.071C117.872,85.991,122.809,84.6,124.994,86.781Z"/>
</svg>
